# This file uses centimeters as units for non-parametric coordinates.

v 0.045804 0.000000 -0.045804
v 0.000000 0.000000 -0.064776
v -0.045804 0.000000 -0.045804
v -0.064776 0.000000 0.000000
v -0.045804 0.000000 0.045804
v 0.000000 0.000000 0.064776
v 0.045804 0.000000 0.045804
v 0.064776 0.000000 0.000000
v 0.045804 0.487863 -0.045804
v 0.000000 0.487863 -0.064776
v -0.045804 0.487863 -0.045804
v -0.064776 0.487863 0.000000
v -0.045804 0.487863 0.045804
v 0.000000 0.487863 0.064776
v 0.045804 0.487863 0.045804
v 0.064776 0.487863 0.000000
v 0.111252 0.973084 -0.111252
v -0.000000 0.973084 -0.157333
v -0.111252 0.973084 -0.111252
v -0.157333 0.973084 -0.000000
v -0.111252 0.973084 0.111252
v -0.000000 0.973084 0.157333
v 0.111252 0.973084 0.111252
v 0.157333 0.973084 -0.000000
v 0.121012 0.967824 -0.121012
v 0.171137 0.967824 -0.000000
v 0.121012 0.967824 0.121012
v -0.000000 0.967824 0.171137
v -0.121012 0.967824 0.121012
v -0.171137 0.967824 -0.000000
v -0.121012 0.967824 -0.121012
v -0.000000 0.967824 -0.171137
v 0.121012 0.922950 -0.121012
v 0.171137 0.922950 -0.000000
v 0.121012 0.922950 0.121012
v -0.000000 0.922950 0.171137
v -0.121012 0.922950 0.121012
v -0.171137 0.922950 -0.000000
v -0.121012 0.922950 -0.121012
v -0.000000 0.922950 -0.171137
v 0.111252 0.910245 -0.111252
v 0.157333 0.910245 -0.000000
v 0.111252 0.910245 0.111252
v -0.000000 0.910245 0.157333
v -0.111252 0.910245 0.111252
v -0.157333 0.910245 -0.000000
v -0.111252 0.910245 -0.111252
v -0.000000 0.910245 -0.157333
v 0.045804 0.895561 -0.045804
v 0.064776 0.895561 0.000000
v 0.045804 0.895561 0.045804
v 0.000000 0.895561 0.064776
v -0.045804 0.895561 0.045804
v -0.064776 0.895561 0.000000
v -0.045804 0.895561 -0.045804
v 0.000000 0.895561 -0.064776
vt 0.164929 0.012499
vt 0.164929 0.348496
vt 0.751331 0.348496
vt 0.248701 0.012499
vt 0.248701 0.348496
vt 0.332472 0.012499
vt 0.332472 0.348496
vt 0.416244 0.012499
vt 0.416244 0.348496
vt 0.500016 0.012499
vt 0.500016 0.348496
vt 0.583788 0.012499
vt 0.583788 0.348496
vt 0.667560 0.012499
vt 0.667560 0.348496
vt 0.164929 0.629281
vt 0.248701 0.629281
vt 0.332472 0.629281
vt 0.416244 0.629281
vt 0.500016 0.629281
vt 0.583788 0.629281
vt 0.667560 0.629281
vt 0.164929 0.682673
vt 0.248701 0.682673
vt 0.332472 0.682673
vt 0.416244 0.682673
vt 0.500016 0.682673
vt 0.583788 0.682673
vt 0.667560 0.682673
vt 0.667560 0.679049
vt 0.583788 0.679049
vt 0.500016 0.679049
vt 0.416244 0.679049
vt 0.332472 0.679049
vt 0.248701 0.679049
vt 0.164929 0.679049
vt 0.667560 0.648145
vt 0.583788 0.648145
vt 0.500016 0.648145
vt 0.416244 0.648145
vt 0.332472 0.648145
vt 0.248701 0.648145
vt 0.164929 0.648145
vt 0.667560 0.639394
vt 0.583788 0.639394
vt 0.500016 0.639394
vt 0.416244 0.639394
vt 0.332472 0.639394
vt 0.248701 0.639394
vt 0.164929 0.639394
vt 0.751331 0.012499
vt 0.835103 0.012499
vt 0.835103 0.348496
vt 0.835103 0.629281
vt 0.835103 0.682673
vt 0.592102 0.952816
vt 0.500000 0.990966
vt 0.407898 0.952816
vt 0.369748 0.860714
vt 0.407898 0.768612
vt 0.500000 0.730462
vt 0.835103 0.679049
vt 0.751331 0.682673
vt 0.835103 0.648145
vt 0.751331 0.679049
vt 0.835103 0.639394
vt 0.751331 0.648145
vt 0.751331 0.629281
vt 0.751331 0.639394
vt 0.592102 0.768612
vt 0.630252 0.860714
vn 0.707107 0.000000 -0.707107
vn -0.000000 0.000000 -1.000000
vn -0.000000 0.000000 -1.000000
vn 0.707107 0.000000 -0.707107
vn -0.707107 0.000000 -0.707107
vn -0.707107 0.000000 -0.707107
vn -1.000000 0.000000 -0.000000
vn -1.000000 -0.000000 -0.000000
vn -0.707107 0.000000 0.707107
vn -0.707107 -0.000000 0.707107
vn -0.000000 0.000000 1.000000
vn -0.000000 0.000000 1.000000
vn 0.707107 0.000000 0.707107
vn 0.707107 0.000000 0.707107
vn 1.000000 0.000000 -0.000000
vn 1.000000 0.000000 -0.000000
vn -0.000000 -0.673998 -0.738734
vn 0.522364 -0.673998 -0.522363
vn -0.522364 -0.673997 -0.522364
vn -0.738734 -0.673997 -0.000000
vn -0.522364 -0.673997 0.522364
vn -0.000000 -0.673997 0.738734
vn 0.522364 -0.673997 0.522364
vn 0.738734 -0.673997 0.000000
vn 0.169785 0.970745 -0.169785
vn 0.000000 0.970745 -0.240113
vn -0.169785 0.970745 -0.169785
vn -0.240112 0.970745 0.000000
vn -0.169785 0.970745 0.169785
vn -0.000000 0.970745 0.240113
vn 0.169785 0.970745 0.169785
vn 0.240112 0.970745 0.000001
vn 0.809859 0.586625 0.000000
vn 0.572657 0.586625 -0.572657
vn 0.572657 0.586624 0.572657
vn -0.000000 0.586624 0.809859
vn -0.572657 0.586624 0.572657
vn -0.809859 0.586624 0.000000
vn -0.572657 0.586624 -0.572657
vn 0.000000 0.586624 -0.809859
vn 0.912087 -0.409997 -0.000000
vn 0.644943 -0.409997 -0.644943
vn 0.644943 -0.409997 0.644943
vn -0.000000 -0.409997 0.912087
vn -0.644943 -0.409997 0.644943
vn -0.912087 -0.409997 -0.000000
vn -0.644943 -0.409997 -0.644943
vn 0.000000 -0.409997 -0.912087
vn 0.677242 -0.735760 -0.000000
vn 0.478883 -0.735760 -0.478883
vn 0.478883 -0.735760 0.478883
vn -0.000000 -0.735760 0.677243
vn -0.478883 -0.735760 0.478883
vn -0.677243 -0.735760 -0.000000
vn -0.478883 -0.735760 -0.478883
vn 0.000000 -0.735760 -0.677243
vn 0.110794 -0.987648 -0.110794
vn 0.156687 -0.987648 0.000000
vn 0.110794 -0.987648 0.110794
vn -0.000000 -0.987648 0.156687
vn -0.110794 -0.987648 0.110795
vn -0.156687 -0.987648 0.000000
vn -0.110794 -0.987648 -0.110794
vn 0.000000 -0.987648 -0.156687
s 1
f 1/51/1 2/52/2 10/53/3 9/3/4
f 2/1/2 3/4/5 11/5/6 10/2/3
f 3/4/5 4/6/7 12/7/8 11/5/6
f 4/6/7 5/8/9 13/9/10 12/7/8
f 5/8/9 6/10/11 14/11/12 13/9/10
f 6/10/11 7/12/13 15/13/14 14/11/12
f 7/12/13 8/14/15 16/15/16 15/13/14
f 8/14/15 1/51/1 9/3/4 16/15/16
f 9/3/4 10/53/3 56/54/17 49/68/18
f 10/2/3 11/5/6 55/17/19 56/16/17
f 11/5/6 12/7/8 54/18/20 55/17/19
f 12/7/8 13/9/10 53/19/21 54/18/20
f 13/9/10 14/11/12 52/20/22 53/19/21
f 14/11/12 15/13/14 51/21/23 52/20/22
f 15/13/14 16/15/16 50/22/24 51/21/23
f 16/15/16 9/3/4 49/68/18 50/22/24
s 2
f 17/56/25 18/57/26 19/58/27 20/59/28 21/60/29 22/61/30 23/70/31 24/71/32
f 26/30/33 25/65/34 17/63/25 24/29/32
f 27/31/35 26/30/33 24/29/32 23/28/31
f 28/32/36 27/31/35 23/28/31 22/27/30
f 29/33/37 28/32/36 22/27/30 21/26/29
f 30/34/38 29/33/37 21/26/29 20/25/28
f 31/35/39 30/34/38 20/25/28 19/24/27
f 32/36/40 31/35/39 19/24/27 18/23/26
f 25/65/34 32/62/40 18/55/26 17/63/25
f 34/37/41 33/67/42 25/65/34 26/30/33
f 35/38/43 34/37/41 26/30/33 27/31/35
f 36/39/44 35/38/43 27/31/35 28/32/36
f 37/40/45 36/39/44 28/32/36 29/33/37
f 38/41/46 37/40/45 29/33/37 30/34/38
f 39/42/47 38/41/46 30/34/38 31/35/39
f 40/43/48 39/42/47 31/35/39 32/36/40
f 33/67/42 40/64/48 32/62/40 25/65/34
f 42/44/49 41/69/50 33/67/42 34/37/41
f 43/45/51 42/44/49 34/37/41 35/38/43
f 44/46/52 43/45/51 35/38/43 36/39/44
f 45/47/53 44/46/52 36/39/44 37/40/45
f 46/48/54 45/47/53 37/40/45 38/41/46
f 47/49/55 46/48/54 38/41/46 39/42/47
f 48/50/56 47/49/55 39/42/47 40/43/48
f 41/69/50 48/66/56 40/64/48 33/67/42
s 1
f 50/22/24 49/68/18 41/69/57 42/44/58
f 51/21/23 50/22/24 42/44/58 43/45/59
f 52/20/22 51/21/23 43/45/59 44/46/60
f 53/19/21 52/20/22 44/46/60 45/47/61
f 54/18/20 53/19/21 45/47/61 46/48/62
f 55/17/19 54/18/20 46/48/62 47/49/63
f 56/16/17 55/17/19 47/49/63 48/50/64
f 49/68/18 56/54/17 48/66/64 41/69/57
